<svg width="1201" height="180" viewBox="0 0 1201 180" fill="none" xmlns="http://www.w3.org/2000/svg">
<circle cx="90" cy="90" r="90" fill="#00FA9A"/>
<line x1="103.883" y1="33.606" x2="68.606" y2="68.1165" stroke="white" stroke-width="15" stroke-linecap="round"/>
<line x1="112.883" y1="100.606" x2="77.606" y2="135.117" stroke="white" stroke-width="15" stroke-linecap="round"/>
<line x1="68.4789" y1="68.3594" x2="111.201" y2="99.5149" stroke="white" stroke-width="15" stroke-linecap="round"/>
<path d="M273.285 108.344V121H230.395V108.344H273.285ZM235.258 35.6875V121H219.145V35.6875H235.258ZM299.301 57.6016V121H283.773V57.6016H299.301ZM282.719 41.0195C282.719 38.7148 283.5 36.8008 285.062 35.2773C286.664 33.7539 288.812 32.9922 291.508 32.9922C294.203 32.9922 296.332 33.7539 297.895 35.2773C299.496 36.8008 300.297 38.7148 300.297 41.0195C300.297 43.2852 299.496 45.1797 297.895 46.7031C296.332 48.2266 294.203 48.9883 291.508 48.9883C288.812 48.9883 286.664 48.2266 285.062 46.7031C283.5 45.1797 282.719 43.2852 282.719 41.0195ZM354.379 57.6016H368.441V119.066C368.441 124.809 367.191 129.672 364.691 133.656C362.23 137.68 358.773 140.727 354.32 142.797C349.867 144.906 344.691 145.961 338.793 145.961C336.254 145.961 333.5 145.609 330.531 144.906C327.602 144.203 324.77 143.09 322.035 141.566C319.34 140.082 317.094 138.148 315.297 135.766L322.27 126.625C324.379 129.086 326.762 130.941 329.418 132.191C332.074 133.48 334.945 134.125 338.031 134.125C341.156 134.125 343.812 133.539 346 132.367C348.227 131.234 349.926 129.555 351.098 127.328C352.309 125.141 352.914 122.445 352.914 119.242V72.0742L354.379 57.6016ZM311.547 90.0625V88.832C311.547 83.9883 312.133 79.5938 313.305 75.6484C314.477 71.6641 316.156 68.2461 318.344 65.3945C320.57 62.543 323.246 60.3359 326.371 58.7734C329.535 57.2109 333.09 56.4297 337.035 56.4297C341.215 56.4297 344.73 57.1914 347.582 58.7148C350.473 60.2383 352.855 62.4062 354.73 65.2188C356.645 68.0312 358.129 71.3711 359.184 75.2383C360.277 79.0664 361.117 83.2852 361.703 87.8945V91.2344C361.156 95.7266 360.277 99.8477 359.066 103.598C357.895 107.348 356.332 110.629 354.379 113.441C352.426 116.215 350.004 118.363 347.113 119.887C344.223 121.41 340.824 122.172 336.918 122.172C333.012 122.172 329.496 121.371 326.371 119.77C323.246 118.168 320.57 115.922 318.344 113.031C316.156 110.141 314.477 106.742 313.305 102.836C312.133 98.9297 311.547 94.6719 311.547 90.0625ZM327.016 88.832V90.0625C327.016 92.7969 327.289 95.3555 327.836 97.7383C328.383 100.121 329.223 102.23 330.355 104.066C331.488 105.863 332.914 107.27 334.633 108.285C336.352 109.301 338.402 109.809 340.785 109.809C343.988 109.809 346.605 109.145 348.637 107.816C350.707 106.449 352.27 104.594 353.324 102.25C354.418 99.8672 355.121 97.1914 355.434 94.2227V85.0234C355.238 82.6797 354.809 80.5117 354.145 78.5195C353.52 76.5273 352.641 74.8086 351.508 73.3633C350.375 71.918 348.93 70.7852 347.172 69.9648C345.414 69.1445 343.324 68.7344 340.902 68.7344C338.559 68.7344 336.508 69.2617 334.75 70.3164C332.992 71.332 331.547 72.7578 330.414 74.5938C329.281 76.4297 328.422 78.5586 327.836 80.9805C327.289 83.4023 327.016 86.0195 327.016 88.832ZM397.562 31V121H382.035V31H397.562ZM395.102 87.0156H390.531C390.531 82.6016 391.117 78.5391 392.289 74.8281C393.461 71.1172 395.121 67.8945 397.27 65.1602C399.418 62.3867 401.977 60.2383 404.945 58.7148C407.953 57.1914 411.273 56.4297 414.906 56.4297C418.031 56.4297 420.863 56.8789 423.402 57.7773C425.98 58.6367 428.188 60.0234 430.023 61.9375C431.859 63.8516 433.266 66.3516 434.242 69.4375C435.258 72.4844 435.766 76.1953 435.766 80.5703V121H420.18V80.4531C420.18 77.5234 419.75 75.2188 418.891 73.5391C418.031 71.8203 416.801 70.5898 415.199 69.8477C413.637 69.1055 411.703 68.7344 409.398 68.7344C406.898 68.7344 404.75 69.2227 402.953 70.1992C401.156 71.1367 399.672 72.4453 398.5 74.125C397.367 75.8047 396.508 77.7383 395.922 79.9258C395.375 82.1133 395.102 84.4766 395.102 87.0156ZM479.418 57.6016V68.7344H443.09V57.6016H479.418ZM452.816 42.0156H468.344V102.719C468.344 104.594 468.598 106.039 469.105 107.055C469.613 108.07 470.375 108.754 471.391 109.105C472.406 109.457 473.617 109.633 475.023 109.633C476.039 109.633 476.977 109.574 477.836 109.457C478.695 109.34 479.418 109.223 480.004 109.105L480.062 120.707C478.773 121.137 477.309 121.488 475.668 121.762C474.066 122.035 472.25 122.172 470.219 122.172C466.742 122.172 463.695 121.586 461.078 120.414C458.461 119.203 456.43 117.27 454.984 114.613C453.539 111.918 452.816 108.363 452.816 103.949V42.0156ZM504.906 71.1367V121H489.438V57.6016H503.969L504.906 71.1367ZM502.445 87.0156H497.875C497.914 82.4062 498.539 78.2266 499.75 74.4766C500.961 70.7266 502.66 67.5039 504.848 64.8086C507.074 62.1133 509.711 60.043 512.758 58.5977C515.805 57.1523 519.203 56.4297 522.953 56.4297C526 56.4297 528.754 56.8594 531.215 57.7188C533.676 58.5781 535.785 59.9453 537.543 61.8203C539.34 63.6953 540.707 66.1562 541.645 69.2031C542.621 72.2109 543.109 75.9219 543.109 80.3359V121H527.523V80.2188C527.523 77.3281 527.094 75.043 526.234 73.3633C525.414 71.6836 524.203 70.4922 522.602 69.7891C521.039 69.0859 519.105 68.7344 516.801 68.7344C514.418 68.7344 512.328 69.2227 510.531 70.1992C508.773 71.1367 507.289 72.4453 506.078 74.125C504.906 75.8047 504.008 77.7383 503.383 79.9258C502.758 82.1133 502.445 84.4766 502.445 87.0156ZM573.168 57.6016V121H557.641V57.6016H573.168ZM556.586 41.0195C556.586 38.7148 557.367 36.8008 558.93 35.2773C560.531 33.7539 562.68 32.9922 565.375 32.9922C568.07 32.9922 570.199 33.7539 571.762 35.2773C573.363 36.8008 574.164 38.7148 574.164 41.0195C574.164 43.2852 573.363 45.1797 571.762 46.7031C570.199 48.2266 568.07 48.9883 565.375 48.9883C562.68 48.9883 560.531 48.2266 558.93 46.7031C557.367 45.1797 556.586 43.2852 556.586 41.0195ZM603.109 71.1367V121H587.641V57.6016H602.172L603.109 71.1367ZM600.648 87.0156H596.078C596.117 82.4062 596.742 78.2266 597.953 74.4766C599.164 70.7266 600.863 67.5039 603.051 64.8086C605.277 62.1133 607.914 60.043 610.961 58.5977C614.008 57.1523 617.406 56.4297 621.156 56.4297C624.203 56.4297 626.957 56.8594 629.418 57.7188C631.879 58.5781 633.988 59.9453 635.746 61.8203C637.543 63.6953 638.91 66.1562 639.848 69.2031C640.824 72.2109 641.312 75.9219 641.312 80.3359V121H625.727V80.2188C625.727 77.3281 625.297 75.043 624.438 73.3633C623.617 71.6836 622.406 70.4922 620.805 69.7891C619.242 69.0859 617.309 68.7344 615.004 68.7344C612.621 68.7344 610.531 69.2227 608.734 70.1992C606.977 71.1367 605.492 72.4453 604.281 74.125C603.109 75.8047 602.211 77.7383 601.586 79.9258C600.961 82.1133 600.648 84.4766 600.648 87.0156ZM695.277 57.6016H709.34V119.066C709.34 124.809 708.09 129.672 705.59 133.656C703.129 137.68 699.672 140.727 695.219 142.797C690.766 144.906 685.59 145.961 679.691 145.961C677.152 145.961 674.398 145.609 671.43 144.906C668.5 144.203 665.668 143.09 662.934 141.566C660.238 140.082 657.992 138.148 656.195 135.766L663.168 126.625C665.277 129.086 667.66 130.941 670.316 132.191C672.973 133.48 675.844 134.125 678.93 134.125C682.055 134.125 684.711 133.539 686.898 132.367C689.125 131.234 690.824 129.555 691.996 127.328C693.207 125.141 693.812 122.445 693.812 119.242V72.0742L695.277 57.6016ZM652.445 90.0625V88.832C652.445 83.9883 653.031 79.5938 654.203 75.6484C655.375 71.6641 657.055 68.2461 659.242 65.3945C661.469 62.543 664.145 60.3359 667.27 58.7734C670.434 57.2109 673.988 56.4297 677.934 56.4297C682.113 56.4297 685.629 57.1914 688.48 58.7148C691.371 60.2383 693.754 62.4062 695.629 65.2188C697.543 68.0312 699.027 71.3711 700.082 75.2383C701.176 79.0664 702.016 83.2852 702.602 87.8945V91.2344C702.055 95.7266 701.176 99.8477 699.965 103.598C698.793 107.348 697.23 110.629 695.277 113.441C693.324 116.215 690.902 118.363 688.012 119.887C685.121 121.41 681.723 122.172 677.816 122.172C673.91 122.172 670.395 121.371 667.27 119.77C664.145 118.168 661.469 115.922 659.242 113.031C657.055 110.141 655.375 106.742 654.203 102.836C653.031 98.9297 652.445 94.6719 652.445 90.0625ZM667.914 88.832V90.0625C667.914 92.7969 668.188 95.3555 668.734 97.7383C669.281 100.121 670.121 102.23 671.254 104.066C672.387 105.863 673.812 107.27 675.531 108.285C677.25 109.301 679.301 109.809 681.684 109.809C684.887 109.809 687.504 109.145 689.535 107.816C691.605 106.449 693.168 104.594 694.223 102.25C695.316 99.8672 696.02 97.1914 696.332 94.2227V85.0234C696.137 82.6797 695.707 80.5117 695.043 78.5195C694.418 76.5273 693.539 74.8086 692.406 73.3633C691.273 71.918 689.828 70.7852 688.07 69.9648C686.312 69.1445 684.223 68.7344 681.801 68.7344C679.457 68.7344 677.406 69.2617 675.648 70.3164C673.891 71.332 672.445 72.7578 671.312 74.5938C670.18 76.4297 669.32 78.5586 668.734 80.9805C668.188 83.4023 667.914 86.0195 667.914 88.832ZM822.895 35.6875V121H806.723L770.453 61.8203V121H754.34V35.6875H770.453L806.84 94.9258V35.6875H822.895ZM866.605 122.172C861.801 122.172 857.484 121.391 853.656 119.828C849.828 118.266 846.566 116.098 843.871 113.324C841.215 110.512 839.164 107.25 837.719 103.539C836.312 99.7891 835.609 95.7656 835.609 91.4688V89.125C835.609 84.2422 836.312 79.8086 837.719 75.8242C839.125 71.8008 841.117 68.3438 843.695 65.4531C846.273 62.5625 849.359 60.3359 852.953 58.7734C856.547 57.2109 860.512 56.4297 864.848 56.4297C869.34 56.4297 873.305 57.1914 876.742 58.7148C880.18 60.1992 883.051 62.3086 885.355 65.043C887.66 67.7773 889.398 71.0586 890.57 74.8867C891.742 78.6758 892.328 82.875 892.328 87.4844V93.9883H842.641V83.3242H877.094V82.1523C877.016 79.6914 876.547 77.4453 875.688 75.4141C874.828 73.3438 873.5 71.7031 871.703 70.4922C869.906 69.2422 867.582 68.6172 864.73 68.6172C862.426 68.6172 860.414 69.125 858.695 70.1406C857.016 71.1172 855.609 72.5234 854.477 74.3594C853.383 76.1562 852.562 78.3047 852.016 80.8047C851.469 83.3047 851.195 86.0781 851.195 89.125V91.4688C851.195 94.125 851.547 96.5859 852.25 98.8516C852.992 101.117 854.066 103.09 855.473 104.77C856.918 106.41 858.637 107.699 860.629 108.637C862.66 109.535 864.965 109.984 867.543 109.984C870.785 109.984 873.715 109.359 876.332 108.109C878.988 106.82 881.293 104.926 883.246 102.426L891.039 110.512C889.711 112.465 887.914 114.34 885.648 116.137C883.422 117.934 880.727 119.398 877.562 120.531C874.398 121.625 870.746 122.172 866.605 122.172ZM932.699 57.6016V68.7344H896.371V57.6016H932.699ZM906.098 42.0156H921.625V102.719C921.625 104.594 921.879 106.039 922.387 107.055C922.895 108.07 923.656 108.754 924.672 109.105C925.688 109.457 926.898 109.633 928.305 109.633C929.32 109.633 930.258 109.574 931.117 109.457C931.977 109.34 932.699 109.223 933.285 109.105L933.344 120.707C932.055 121.137 930.59 121.488 928.949 121.762C927.348 122.035 925.531 122.172 923.5 122.172C920.023 122.172 916.977 121.586 914.359 120.414C911.742 119.203 909.711 117.27 908.266 114.613C906.82 111.918 906.098 108.363 906.098 103.949V42.0156ZM960.648 105.766L974.535 57.6016H984.379L981.449 74.2422L967.445 121H958.949L960.648 105.766ZM952.973 57.6016L963.402 105.883L964.34 121H954.555L937.914 57.6016H952.973ZM997.27 105.18L1007.46 57.6016H1022.46L1005.94 121H996.156L997.27 105.18ZM985.902 57.6016L999.672 105.297L1001.49 121H992.992L978.871 74.2422L976 57.6016H985.902ZM1028.85 89.9453V88.7148C1028.85 84.0664 1029.52 79.7891 1030.84 75.8828C1032.17 71.9375 1034.11 68.5195 1036.64 65.6289C1039.18 62.7383 1042.29 60.4922 1045.96 58.8906C1049.63 57.25 1053.81 56.4297 1058.5 56.4297C1063.27 56.4297 1067.48 57.25 1071.16 58.8906C1074.87 60.4922 1077.99 62.7383 1080.53 65.6289C1083.07 68.5195 1085 71.9375 1086.33 75.8828C1087.66 79.7891 1088.32 84.0664 1088.32 88.7148V89.9453C1088.32 94.5547 1087.66 98.832 1086.33 102.777C1085 106.684 1083.07 110.102 1080.53 113.031C1077.99 115.922 1074.89 118.168 1071.21 119.77C1067.54 121.371 1063.34 122.172 1058.62 122.172C1053.93 122.172 1049.73 121.371 1046.02 119.77C1042.31 118.168 1039.18 115.922 1036.64 113.031C1034.11 110.102 1032.17 106.684 1030.84 102.777C1029.52 98.832 1028.85 94.5547 1028.85 89.9453ZM1044.32 88.7148V89.9453C1044.32 92.7188 1044.59 95.3164 1045.14 97.7383C1045.69 100.16 1046.53 102.289 1047.66 104.125C1048.79 105.961 1050.26 107.406 1052.05 108.461C1053.89 109.477 1056.08 109.984 1058.62 109.984C1061.12 109.984 1063.27 109.477 1065.06 108.461C1066.86 107.406 1068.32 105.961 1069.46 104.125C1070.63 102.289 1071.49 100.16 1072.04 97.7383C1072.58 95.3164 1072.86 92.7188 1072.86 89.9453V88.7148C1072.86 85.9805 1072.58 83.4219 1072.04 81.0391C1071.49 78.6172 1070.63 76.4883 1069.46 74.6523C1068.32 72.7773 1066.84 71.3125 1065 70.2578C1063.21 69.1641 1061.04 68.6172 1058.5 68.6172C1056 68.6172 1053.85 69.1641 1052.05 70.2578C1050.26 71.3125 1048.79 72.7773 1047.66 74.6523C1046.53 76.4883 1045.69 78.6172 1045.14 81.0391C1044.59 83.4219 1044.32 85.9805 1044.32 88.7148ZM1115.04 70.5508V121H1099.57V57.6016H1114.22L1115.04 70.5508ZM1134.32 57.1914L1134.09 71.6055C1133.23 71.4492 1132.25 71.332 1131.16 71.2539C1130.1 71.1758 1129.11 71.1367 1128.17 71.1367C1125.79 71.1367 1123.7 71.4688 1121.9 72.1328C1120.1 72.7578 1118.6 73.6758 1117.39 74.8867C1116.21 76.0977 1115.32 77.582 1114.69 79.3398C1114.07 81.0586 1113.71 83.0117 1113.64 85.1992L1110.3 84.7891C1110.3 80.7656 1110.71 77.0352 1111.53 73.5977C1112.35 70.1602 1113.54 67.1523 1115.1 64.5742C1116.66 61.9961 1118.62 60.0039 1120.96 58.5977C1123.34 57.1523 1126.08 56.4297 1129.16 56.4297C1130.02 56.4297 1130.94 56.5078 1131.92 56.6641C1132.93 56.7812 1133.73 56.957 1134.32 57.1914ZM1158.29 30.9414V121H1142.82V30.9414H1158.29ZM1198.01 57.6016L1170.41 88.5977L1155.47 103.773L1150.55 91.7617L1162.09 77.2305L1179.32 57.6016H1198.01ZM1182.19 121L1162.56 91.4688L1172.88 81.4492L1200.12 121H1182.19Z" fill="black"/>
</svg>
